<?xml version="1.0" encoding="us-ascii" standalone="no"?><svg xmlns="http://www.w3.org/2000/svg" xmlns:xlink="http://www.w3.org/1999/xlink" contentStyleType="text/css" height="458px" preserveAspectRatio="none" style="width:775px;height:458px;background:#FFFFFF;" version="1.1" viewBox="0 0 775 458" width="775px" zoomAndPan="magnify"><defs/><g><!--class AppComponent--><g id="elem_AppComponent"><rect codeLine="1" fill="#F1F1F1" height="129.4844" id="AppComponent" rx="2.5" ry="2.5" style="stroke:#181818;stroke-width:0.5;" width="152" x="227" y="7"/><ellipse cx="242" cy="23" fill="#ADD1B2" rx="11" ry="11" style="stroke:#181818;stroke-width:1.0;"/><path d="M244.3438,18.6719 C243.4063,18.2344 242.8125,18.0938 241.9375,18.0938 C239.3125,18.0938 237.3125,20.1719 237.3125,22.8906 L237.3125,24.0156 C237.3125,26.5938 239.4219,28.4844 242.3125,28.4844 C243.5313,28.4844 244.6875,28.1875 245.4375,27.6406 C246.0156,27.2344 246.3438,26.7813 246.3438,26.3906 C246.3438,25.9375 245.9531,25.5469 245.4844,25.5469 C245.2656,25.5469 245.0625,25.625 244.875,25.8125 C244.4219,26.2969 244.4219,26.2969 244.2344,26.3906 C243.8125,26.6563 243.125,26.7813 242.3594,26.7813 C240.3125,26.7813 239.0156,25.6875 239.0156,23.9844 L239.0156,22.8906 C239.0156,21.1094 240.2656,19.7969 242,19.7969 C242.5781,19.7969 243.1875,19.9531 243.6563,20.2031 C244.1406,20.4844 244.3125,20.7031 244.4063,21.1094 C244.4688,21.5156 244.5,21.6406 244.6406,21.7656 C244.7813,21.9063 245.0156,22.0156 245.2344,22.0156 C245.5,22.0156 245.7656,21.875 245.9375,21.6563 C246.0469,21.5 246.0781,21.3125 246.0781,20.8906 L246.0781,19.4688 C246.0781,19.0313 246.0625,18.9063 245.9688,18.75 C245.8125,18.4844 245.5313,18.3438 245.2344,18.3438 C244.9375,18.3438 244.7344,18.4375 244.5156,18.75 L244.3438,18.6719 Z " fill="#000000"/><text fill="#000000" font-family="sans-serif" font-size="14" lengthAdjust="spacing" textLength="120" x="256" y="27.8467">App Component</text><line style="stroke:#181818;stroke-width:0.5;" x1="228" x2="378" y1="39" y2="39"/><ellipse cx="238" cy="52.6484" fill="none" rx="3" ry="3" style="stroke:#038048;stroke-width:1.0;"/><text fill="#000000" font-family="sans-serif" font-size="14" lengthAdjust="spacing" textLength="40" x="247" y="55.9951">State</text><line style="stroke:#181818;stroke-width:0.5;" x1="228" x2="378" y1="63.2969" y2="63.2969"/><ellipse cx="238" cy="76.9453" fill="#84BE84" rx="3" ry="3" style="stroke:#038048;stroke-width:1.0;"/><text fill="#000000" font-family="sans-serif" font-size="14" lengthAdjust="spacing" textLength="67" x="247" y="80.292">setData()</text><ellipse cx="238" cy="93.2422" fill="#84BE84" rx="3" ry="3" style="stroke:#038048;stroke-width:1.0;"/><text fill="#000000" font-family="sans-serif" font-size="14" lengthAdjust="spacing" textLength="99" x="247" y="96.5889">setFavorites()</text><ellipse cx="238" cy="109.5391" fill="#84BE84" rx="3" ry="3" style="stroke:#038048;stroke-width:1.0;"/><text fill="#000000" font-family="sans-serif" font-size="14" lengthAdjust="spacing" textLength="90" x="247" y="112.8857">setBgColor()</text><ellipse cx="238" cy="125.8359" fill="#84BE84" rx="3" ry="3" style="stroke:#038048;stroke-width:1.0;"/><text fill="#000000" font-family="sans-serif" font-size="14" lengthAdjust="spacing" textLength="126" x="247" y="129.1826">setSearchString()</text></g><!--class LeftPanel--><g id="elem_LeftPanel"><rect codeLine="9" fill="#F1F1F1" height="96.8906" id="LeftPanel" rx="2.5" ry="2.5" style="stroke:#181818;stroke-width:0.5;" width="146" x="25" y="213"/><ellipse cx="58.45" cy="229" fill="#ADD1B2" rx="11" ry="11" style="stroke:#181818;stroke-width:1.0;"/><path d="M60.7938,224.6719 C59.8563,224.2344 59.2625,224.0938 58.3875,224.0938 C55.7625,224.0938 53.7625,226.1719 53.7625,228.8906 L53.7625,230.0156 C53.7625,232.5938 55.8719,234.4844 58.7625,234.4844 C59.9813,234.4844 61.1375,234.1875 61.8875,233.6406 C62.4656,233.2344 62.7938,232.7813 62.7938,232.3906 C62.7938,231.9375 62.4031,231.5469 61.9344,231.5469 C61.7156,231.5469 61.5125,231.625 61.325,231.8125 C60.8719,232.2969 60.8719,232.2969 60.6844,232.3906 C60.2625,232.6563 59.575,232.7813 58.8094,232.7813 C56.7625,232.7813 55.4656,231.6875 55.4656,229.9844 L55.4656,228.8906 C55.4656,227.1094 56.7156,225.7969 58.45,225.7969 C59.0281,225.7969 59.6375,225.9531 60.1063,226.2031 C60.5906,226.4844 60.7625,226.7031 60.8563,227.1094 C60.9188,227.5156 60.95,227.6406 61.0906,227.7656 C61.2313,227.9063 61.4656,228.0156 61.6844,228.0156 C61.95,228.0156 62.2156,227.875 62.3875,227.6563 C62.4969,227.5 62.5281,227.3125 62.5281,226.8906 L62.5281,225.4688 C62.5281,225.0313 62.5125,224.9063 62.4188,224.75 C62.2625,224.4844 61.9813,224.3438 61.6844,224.3438 C61.3875,224.3438 61.1844,224.4375 60.9656,224.75 L60.7938,224.6719 Z " fill="#000000"/><text fill="#000000" font-family="sans-serif" font-size="14" lengthAdjust="spacing" textLength="73" x="76.55" y="233.8467">Left Panel</text><line style="stroke:#181818;stroke-width:0.5;" x1="26" x2="170" y1="245" y2="245"/><line style="stroke:#181818;stroke-width:0.5;" x1="26" x2="170" y1="253" y2="253"/><ellipse cx="36" cy="266.6484" fill="#84BE84" rx="3" ry="3" style="stroke:#038048;stroke-width:1.0;"/><text fill="#000000" font-family="sans-serif" font-size="14" lengthAdjust="spacing" textLength="85" x="45" y="269.9951">FetchData()</text><ellipse cx="36" cy="282.9453" fill="#84BE84" rx="3" ry="3" style="stroke:#038048;stroke-width:1.0;"/><text fill="#000000" font-family="sans-serif" font-size="14" lengthAdjust="spacing" textLength="72" x="45" y="286.292">filterList()</text><ellipse cx="36" cy="299.2422" fill="#84BE84" rx="3" ry="3" style="stroke:#038048;stroke-width:1.0;"/><text fill="#000000" font-family="sans-serif" font-size="14" lengthAdjust="spacing" textLength="120" x="45" y="302.5889">addToFavorites()</text></g><!--class RightPanel--><g id="elem_RightPanel"><rect codeLine="15" fill="#F1F1F1" height="64.2969" id="RightPanel" rx="2.5" ry="2.5" style="stroke:#181818;stroke-width:0.5;" width="194" x="206" y="229.5"/><ellipse cx="257.75" cy="245.5" fill="#ADD1B2" rx="11" ry="11" style="stroke:#181818;stroke-width:1.0;"/><path d="M260.0938,241.1719 C259.1563,240.7344 258.5625,240.5938 257.6875,240.5938 C255.0625,240.5938 253.0625,242.6719 253.0625,245.3906 L253.0625,246.5156 C253.0625,249.0938 255.1719,250.9844 258.0625,250.9844 C259.2813,250.9844 260.4375,250.6875 261.1875,250.1406 C261.7656,249.7344 262.0938,249.2813 262.0938,248.8906 C262.0938,248.4375 261.7031,248.0469 261.2344,248.0469 C261.0156,248.0469 260.8125,248.125 260.625,248.3125 C260.1719,248.7969 260.1719,248.7969 259.9844,248.8906 C259.5625,249.1563 258.875,249.2813 258.1094,249.2813 C256.0625,249.2813 254.7656,248.1875 254.7656,246.4844 L254.7656,245.3906 C254.7656,243.6094 256.0156,242.2969 257.75,242.2969 C258.3281,242.2969 258.9375,242.4531 259.4063,242.7031 C259.8906,242.9844 260.0625,243.2031 260.1563,243.6094 C260.2188,244.0156 260.25,244.1406 260.3906,244.2656 C260.5313,244.4063 260.7656,244.5156 260.9844,244.5156 C261.25,244.5156 261.5156,244.375 261.6875,244.1563 C261.7969,244 261.8281,243.8125 261.8281,243.3906 L261.8281,241.9688 C261.8281,241.5313 261.8125,241.4063 261.7188,241.25 C261.5625,240.9844 261.2813,240.8438 260.9844,240.8438 C260.6875,240.8438 260.4844,240.9375 260.2656,241.25 L260.0938,241.1719 Z " fill="#000000"/><text fill="#000000" font-family="sans-serif" font-size="14" lengthAdjust="spacing" textLength="82" x="278.25" y="250.3467">Right Panel</text><line style="stroke:#181818;stroke-width:0.5;" x1="207" x2="399" y1="261.5" y2="261.5"/><line style="stroke:#181818;stroke-width:0.5;" x1="207" x2="399" y1="269.5" y2="269.5"/><ellipse cx="217" cy="283.1484" fill="#84BE84" rx="3" ry="3" style="stroke:#038048;stroke-width:1.0;"/><text fill="#000000" font-family="sans-serif" font-size="14" lengthAdjust="spacing" textLength="168" x="226" y="286.4951">removeFromFavorites()</text></g><!--class HeaderComponent--><g id="elem_HeaderComponent"><rect codeLine="19" fill="#F1F1F1" height="64.2969" id="HeaderComponent" rx="2.5" ry="2.5" style="stroke:#181818;stroke-width:0.5;" width="192" x="435" y="229.5"/><ellipse cx="458.55" cy="245.5" fill="#ADD1B2" rx="11" ry="11" style="stroke:#181818;stroke-width:1.0;"/><path d="M460.8938,241.1719 C459.9563,240.7344 459.3625,240.5938 458.4875,240.5938 C455.8625,240.5938 453.8625,242.6719 453.8625,245.3906 L453.8625,246.5156 C453.8625,249.0938 455.9719,250.9844 458.8625,250.9844 C460.0813,250.9844 461.2375,250.6875 461.9875,250.1406 C462.5656,249.7344 462.8938,249.2813 462.8938,248.8906 C462.8938,248.4375 462.5031,248.0469 462.0344,248.0469 C461.8156,248.0469 461.6125,248.125 461.425,248.3125 C460.9719,248.7969 460.9719,248.7969 460.7844,248.8906 C460.3625,249.1563 459.675,249.2813 458.9094,249.2813 C456.8625,249.2813 455.5656,248.1875 455.5656,246.4844 L455.5656,245.3906 C455.5656,243.6094 456.8156,242.2969 458.55,242.2969 C459.1281,242.2969 459.7375,242.4531 460.2063,242.7031 C460.6906,242.9844 460.8625,243.2031 460.9563,243.6094 C461.0188,244.0156 461.05,244.1406 461.1906,244.2656 C461.3313,244.4063 461.5656,244.5156 461.7844,244.5156 C462.05,244.5156 462.3156,244.375 462.4875,244.1563 C462.5969,244 462.6281,243.8125 462.6281,243.3906 L462.6281,241.9688 C462.6281,241.5313 462.6125,241.4063 462.5188,241.25 C462.3625,240.9844 462.0813,240.8438 461.7844,240.8438 C461.4875,240.8438 461.2844,240.9375 461.0656,241.25 L460.8938,241.1719 Z " fill="#000000"/><text fill="#000000" font-family="sans-serif" font-size="14" lengthAdjust="spacing" textLength="141" x="474.45" y="250.3467">Header Component</text><line style="stroke:#181818;stroke-width:0.5;" x1="436" x2="626" y1="261.5" y2="261.5"/><line style="stroke:#181818;stroke-width:0.5;" x1="436" x2="626" y1="269.5" y2="269.5"/><ellipse cx="446" cy="283.1484" fill="#84BE84" rx="3" ry="3" style="stroke:#038048;stroke-width:1.0;"/><text fill="#000000" font-family="sans-serif" font-size="14" lengthAdjust="spacing" textLength="166" x="455" y="286.4951">Set Background Color()</text></g><!--class APIService--><g id="elem_APIService"><rect codeLine="23" fill="#F1F1F1" height="64.2969" id="APIService" rx="2.5" ry="2.5" style="stroke:#181818;stroke-width:0.5;" width="182" x="7" y="387"/><ellipse cx="53.75" cy="403" fill="#ADD1B2" rx="11" ry="11" style="stroke:#181818;stroke-width:1.0;"/><path d="M56.0938,398.6719 C55.1563,398.2344 54.5625,398.0938 53.6875,398.0938 C51.0625,398.0938 49.0625,400.1719 49.0625,402.8906 L49.0625,404.0156 C49.0625,406.5938 51.1719,408.4844 54.0625,408.4844 C55.2813,408.4844 56.4375,408.1875 57.1875,407.6406 C57.7656,407.2344 58.0938,406.7813 58.0938,406.3906 C58.0938,405.9375 57.7031,405.5469 57.2344,405.5469 C57.0156,405.5469 56.8125,405.625 56.625,405.8125 C56.1719,406.2969 56.1719,406.2969 55.9844,406.3906 C55.5625,406.6563 54.875,406.7813 54.1094,406.7813 C52.0625,406.7813 50.7656,405.6875 50.7656,403.9844 L50.7656,402.8906 C50.7656,401.1094 52.0156,399.7969 53.75,399.7969 C54.3281,399.7969 54.9375,399.9531 55.4063,400.2031 C55.8906,400.4844 56.0625,400.7031 56.1563,401.1094 C56.2188,401.5156 56.25,401.6406 56.3906,401.7656 C56.5313,401.9063 56.7656,402.0156 56.9844,402.0156 C57.25,402.0156 57.5156,401.875 57.6875,401.6563 C57.7969,401.5 57.8281,401.3125 57.8281,400.8906 L57.8281,399.4688 C57.8281,399.0313 57.8125,398.9063 57.7188,398.75 C57.5625,398.4844 57.2813,398.3438 56.9844,398.3438 C56.6875,398.3438 56.4844,398.4375 56.2656,398.75 L56.0938,398.6719 Z " fill="#000000"/><text fill="#000000" font-family="sans-serif" font-size="14" lengthAdjust="spacing" textLength="80" x="74.25" y="407.8467">API Service</text><line style="stroke:#181818;stroke-width:0.5;" x1="8" x2="188" y1="419" y2="419"/><line style="stroke:#181818;stroke-width:0.5;" x1="8" x2="188" y1="427" y2="427"/><ellipse cx="18" cy="440.6484" fill="#84BE84" rx="3" ry="3" style="stroke:#038048;stroke-width:1.0;"/><text fill="#000000" font-family="sans-serif" font-size="14" lengthAdjust="spacing" textLength="156" x="27" y="443.9951">Handle API Requests()</text></g><!--link AppComponent to LeftPanel--><g id="link_AppComponent_LeftPanel"><path codeLine="27" d="M233.596,136.148 C206.183,161.288 175.233,189.672 149.829,212.969 " fill="none" id="AppComponent-LeftPanel" style="stroke:#181818;stroke-width:1.0;"/><text fill="#000000" font-family="sans-serif" font-size="13" lengthAdjust="spacing" textLength="70" x="202" y="179.0669">Fetch Data</text></g><!--link AppComponent to RightPanel--><g id="link_AppComponent_RightPanel"><path codeLine="28" d="M303,136.148 C303,167.573 303,204.067 303,229.357 " fill="none" id="AppComponent-RightPanel" style="stroke:#181818;stroke-width:1.0;"/><text fill="#000000" font-family="sans-serif" font-size="13" lengthAdjust="spacing" textLength="110" x="304" y="179.0669">Display Favorites</text></g><!--link AppComponent to HeaderComponent--><g id="link_AppComponent_HeaderComponent"><path codeLine="29" d="M379.055,130.707 C393.756,142.253 408.95,154.395 423,166 C447.972,186.626 470.95,206.684 491.932,225.358 " fill="none" id="AppComponent-to-HeaderComponent" style="stroke:#181818;stroke-width:1.0;"/><polygon fill="#181818" points="496.414,229.347,492.3503,220.3756,492.679,226.0229,487.0317,226.3515,496.414,229.347" style="stroke:#181818;stroke-width:1.0;"/><text fill="#000000" font-family="sans-serif" font-size="13" lengthAdjust="spacing" textLength="136" x="442" y="179.0669">UI Title &amp; Color Picker</text></g><!--link LeftPanel to APIService--><g id="link_LeftPanel_APIService"><path codeLine="31" d="M98,310 C98,335.008 98,358.9637 98,380.9759 " fill="none" id="LeftPanel-to-APIService" style="stroke:#181818;stroke-width:1.0;"/><polygon fill="#181818" points="98,386.9759,102,377.9759,98,381.9759,94,377.9759,98,386.9759" style="stroke:#181818;stroke-width:1.0;"/><text fill="#000000" font-family="sans-serif" font-size="13" lengthAdjust="spacing" textLength="70" x="99" y="353.0669">Fetch Data</text></g><!--link HeaderComponent to HeaderComponent--><g id="link_HeaderComponent_HeaderComponent"><path codeLine="34" d="M627.253,245.919 C647.448,247.53 662,252.724 662,261.5 C662,270.276 665.391,274.0386 645.196,275.6496 " fill="none" id="HeaderComponent-to-HeaderComponent" style="stroke:#181818;stroke-width:1.0;"/><polygon fill="none" points="627.253,277.081,645.6731,281.6306,644.7189,269.6686,627.253,277.081" style="stroke:#181818;stroke-width:1.0;"/><text fill="#000000" font-family="sans-serif" font-size="13" lengthAdjust="spacing" textLength="94" x="668" y="266.0669">Display UI Title</text></g><!--link APIService to APIService--><g id="link_APIService_APIService"><path codeLine="36" d="M189.176,406.2283 C209.325,407.4283 224,411.6855 224,419 C224,426.3145 227.2932,429.5016 207.1442,430.7016 " fill="none" id="APIService-to-APIService" style="stroke:#181818;stroke-width:1.0;"/><polygon fill="none" points="189.176,431.7717,207.5009,436.691,206.7875,424.7122,189.176,431.7717" style="stroke:#181818;stroke-width:1.0;"/><text fill="#000000" font-family="sans-serif" font-size="13" lengthAdjust="spacing" textLength="132" x="230" y="423.5669">Handle API Requests</text></g><!--SRC=[RL79ReCm4BtxAqOvLAqgVe13fIoAWfG32ka7ZCm4h02czWIfQlllPGrckV6Uncz3PcWjRBPb2NkTbxgWWZU05chcIS2F07Y7Y96f_RB41sHyVHlG4Ijj59CTgLsorvas8n4H6fb6R5IHrEoV4B8pFzED8SI2ijQvWItgRO_4CdNiRYfZCcTbkISmZg_QJJ1ANrIIkjejTiKDvRgYez7vki29C2OpswOZ5_CGmmxbFJ7wKSGmj1-rjc5G7vbAIUec3eCUzWedBEAC6XukzFKWotsOoS_mF6SYlvi7cdqMPqvR7mxAbXb-mxFd_FnZqSk7pm2kYkjCBrqV29Myan5YJD0yT9fC0Wanb_IytpMV8TpWLrSU9Tit4ukLeVu1]--></g></svg>